<?xml version="1.0" standalone="no"?>
<!DOCTYPE svg PUBLIC "-//W3C//DTD SVG 20010904//EN"
 "http://www.w3.org/TR/2001/REC-SVG-20010904/DTD/svg10.dtd">
<svg version="1.0" xmlns="http://www.w3.org/2000/svg"
 width="1408.000000pt" height="1408.000000pt" viewBox="0 0 1408.000000 1408.000000"
 preserveAspectRatio="xMidYMid meet">
<metadata>
Created by potrace 1.14, written by Peter Selinger 2001-2017
</metadata>
<g transform="translate(0.000000,1408.000000) scale(0.100000,-0.100000)"
fill="#000000" stroke="none">
<path d="M13580 9589 c-63 -22 -122 -42 -130 -45 -8 -3 -15 -5 -15 -4 0 1 -47
-15 -105 -36 -58 -20 -112 -38 -120 -40 -8 -2 -184 -60 -390 -129 -206 -70
-382 -128 -390 -130 -14 -4 -389 -130 -420 -141 -8 -3 -16 -5 -17 -5 -10 -1
-333 -112 -350 -121 -28 -14 -29 -34 -3 -48 11 -6 214 -75 450 -154 l429 -143
78 58 c43 32 83 62 88 66 6 5 73 56 150 113 77 58 147 110 155 117 8 6 44 33
80 60 36 26 67 51 68 55 2 5 10 8 18 8 8 0 14 4 14 8 0 4 12 15 28 24 15 10
43 31 62 48 19 16 43 33 53 36 9 3 17 9 17 14 0 4 7 11 16 14 13 5 14 3 7 -6
-6 -7 -107 -141 -224 -298 -117 -157 -217 -289 -221 -295 -33 -42 -146 -195
-159 -215 -15 -24 -14 -30 45 -161 34 -74 70 -155 80 -180 24 -55 45 -103 91
-203 32 -70 57 -127 56 -133 0 -1 16 -34 35 -73 19 -39 34 -75 34 -80 0 -19
50 -90 63 -90 19 0 50 71 58 135 0 6 5 17 10 26 4 9 10 27 13 40 3 13 15 56
26 94 12 39 23 78 25 88 2 9 6 21 9 25 3 5 8 23 11 40 3 18 12 51 19 75 8 23
20 62 26 87 6 25 14 52 17 60 3 8 7 20 9 25 15 59 26 101 44 160 12 39 23 77
25 85 13 51 77 278 82 290 3 8 7 20 8 25 2 6 8 30 16 55 7 25 13 50 15 55 5
22 166 584 184 644 32 104 24 142 -29 140 -15 0 -78 -18 -141 -40z"/>
<path d="M4215 8589 c-242 -23 -384 -215 -333 -449 9 -38 53 -113 89 -148 75
-76 187 -113 319 -106 116 6 206 47 275 126 62 71 79 120 80 223 0 79 -3 97
-28 148 -72 145 -223 223 -402 206z"/>
<path d="M937 8384 c-1 -1 -38 -5 -82 -8 -340 -28 -609 -200 -747 -478 -17
-34 -31 -66 -33 -72 -1 -6 -7 -24 -14 -41 -26 -64 -48 -177 -57 -303 l-5 -72
317 2 318 3 2 35 c9 135 36 216 94 283 61 69 117 92 220 92 138 -1 214 -52
261 -175 29 -74 30 -203 5 -307 -3 -13 -8 -31 -10 -40 -9 -38 -67 -152 -114
-223 -115 -176 -348 -422 -572 -606 -19 -16 -42 -36 -50 -44 -8 -8 -85 -74
-170 -145 -85 -71 -157 -132 -160 -135 -3 -3 -34 -29 -70 -57 l-65 -52 1 -234
c0 -129 3 -238 6 -243 4 -5 398 -9 964 -9 l959 0 0 258 c0 142 -2 263 -5 268
-4 5 -218 10 -515 11 l-509 3 94 75 c52 41 114 93 139 115 24 22 56 50 70 63
100 90 276 271 347 357 27 33 51 62 54 65 3 3 28 37 56 75 71 100 161 282 179
365 1 3 6 23 13 45 24 86 31 152 32 285 0 144 -8 197 -52 323 -53 152 -164
294 -302 382 -55 35 -177 87 -231 99 -16 3 -41 9 -55 12 -62 13 -305 35 -313
28z"/>
<path d="M3540 7679 c0 -3 -10 -5 -22 -4 -59 4 -186 -40 -293 -103 -82 -48
-247 -201 -260 -242 -15 -46 -20 -4 -18 147 1 163 -2 197 -18 188 -5 -3 -151
-6 -324 -5 l-315 0 2 -1072 3 -1072 326 0 325 -1 1 550 c1 591 3 628 54 727
44 86 159 162 279 183 29 5 214 14 312 15 l26 0 0 340 c0 236 -3 342 -10 347
-14 8 -68 10 -68 2z"/>
<path d="M5690 7677 c0 -6 -2 -8 -5 -5 -3 3 -25 2 -48 -3 -186 -37 -317 -100
-433 -210 -48 -46 -94 -102 -94 -115 0 -4 -6 -15 -13 -23 -18 -21 -55 -110
-62 -148 -12 -70 -17 -120 -16 -153 2 -61 13 -155 19 -165 4 -5 7 -16 8 -23 6
-35 63 -132 103 -176 50 -53 143 -120 206 -149 37 -17 171 -64 205 -72 125
-31 375 -100 444 -124 165 -57 214 -127 163 -234 -34 -72 -106 -102 -242 -102
-90 0 -106 3 -160 29 -88 43 -146 109 -159 181 -3 15 -6 29 -8 30 -5 5 -113 7
-391 6 l-258 -1 5 -37 c11 -89 68 -251 105 -295 6 -7 29 -37 51 -66 57 -73
176 -165 278 -213 48 -23 94 -45 103 -49 29 -15 223 -59 289 -66 74 -8 281 -7
319 0 14 3 42 8 61 11 113 19 189 44 294 97 95 48 93 46 181 133 115 115 169
245 168 410 -1 163 -52 285 -169 401 -117 116 -258 174 -684 284 -198 51 -268
85 -297 140 -74 146 70 257 290 226 107 -15 204 -93 231 -185 l13 -46 302 -2
302 -1 -5 42 c-8 79 -43 191 -80 256 -10 19 -24 44 -30 55 -14 26 -73 101
-106 135 -70 71 -248 180 -294 180 -8 0 -17 4 -20 9 -3 5 -20 11 -38 14 -34 5
-75 13 -118 24 -44 11 -410 10 -410 0z"/>
<path d="M8427 7684 c-1 -1 -24 -5 -52 -8 -77 -10 -84 -12 -91 -18 -3 -4 -12
-4 -19 -2 -7 3 -16 1 -20 -5 -3 -6 -16 -11 -29 -11 -12 0 -26 -3 -30 -7 -4 -5
-11 -8 -14 -8 -14 -1 -99 -49 -155 -86 -59 -40 -137 -114 -137 -130 0 -5 -4
-9 -8 -9 -5 0 -9 56 -9 124 0 68 -3 127 -6 132 -3 5 -151 8 -329 6 l-323 -3 0
-1069 c0 -706 3 -1070 10 -1071 70 -6 638 -2 642 5 4 5 6 277 6 605 -1 632 3
690 47 783 28 60 98 130 157 158 127 59 301 58 419 -3 69 -35 144 -126 171
-207 23 -68 26 -130 27 -725 1 -330 4 -604 8 -610 4 -6 120 -9 320 -8 172 0
316 2 319 2 3 1 6 272 6 604 0 589 3 669 24 725 6 15 10 28 9 30 -5 12 43 85
80 123 79 80 164 111 308 111 127 0 199 -29 285 -114 38 -37 66 -72 63 -77 -4
-5 -2 -11 3 -13 5 -1 18 -35 29 -73 18 -66 20 -108 20 -689 0 -340 3 -620 6
-624 6 -6 608 -10 636 -4 13 3 15 82 13 647 -1 564 -4 727 -17 810 -34 231
-160 441 -337 562 -202 139 -494 183 -749 114 -172 -46 -387 -199 -468 -333
-9 -16 -19 -28 -22 -28 -3 0 -18 21 -35 47 -47 75 -163 184 -246 230 -137 78
-260 111 -442 117 -37 1 -69 1 -70 0z"/>
<path d="M4004 7661 c-2 -2 -19 -4 -38 -3 l-34 1 0 -1064 c-1 -797 2 -1066 11
-1072 6 -4 155 -7 329 -7 l318 -1 0 1072 0 1072 -291 3 c-160 2 -293 1 -295
-1z"/>
</g>
</svg>
